<?xml version="1.0" encoding="UTF-8"?>
<svg id="Layer_1" data-name="Layer 1" xmlns="http://www.w3.org/2000/svg" viewBox="0 0 600 600">
  <defs>
    <style>
      .cls-1 {
        fill: #fff;
      }
    </style>
  </defs>
  <path class="cls-1" d="M275.45,565.68c2.34,1.37,22.09,10.47,24.72,10.47s5.21-.67,7.54-2.01c4.67-2.69,7.57-7.72,7.55-13.11l-.14-59.34-.24-102.35s0,0,0,0l29.93-17.39s0,0,0,0v146.8c0,8.13,6.59,14.72,14.72,14.72h0c.68,0,1.34-.06,1.99-.15l.09.16.42-.24c3.51-.6,6.59-2.43,8.78-5.04,0,0,0,0,0,0l160.21-91.92c7.41-4.25,12.03-12.21,12.04-20.76l.47-256.14c.02-5.69-3.04-10.99-7.97-13.82-.62-.35-1.25-.66-1.9-.93h0c-.74-.6-1.52-1.15-2.36-1.62L308.56,25.72c-5.5-3.15-12.3-3.09-17.75.15L71.55,156.12c-.5.3-.98.63-1.44.98-4.89,2.81-7.95,8.04-7.98,13.69l-1.42,254.19c-.05,8.33,4.4,16.12,11.59,20.33l144.53,84.38s0,0,0,0l9.41-27.3.13.08.28-.79.23-.4-.07-.04,13.92-38.57c.32-.89,1.59-.86,1.87.04l18.98,61.46s0,0,0,0l7.42,23.7M299.93,55l198.12,113.23s0,0,0,0l-198.21,115.96s0,0,0,0l-192.86-114.57s0,0,0,0l192.94-114.62s0,0,0,0ZM239.59,383.91l-29.87,78.87c-.38,1-1.82.89-2.05-.15l-25.48-117s0,0,0,0l-27.22-16.58c-2.99-1.82-6.71.84-5.94,4.26l31.58,140.92s0,0,0,0l-90.18-52.73s0,0,0,0l1.26-225.33s0,0,0,0l193.27,114.82s0,0,0,0l.47,198.7s0,0,0,0l-40.08-125.63c-.88-2.76-4.74-2.86-5.77-.15ZM374.25,501.98v-137.15s0,0,0,0l43.93-25.52c.67-.39,1.09-1.11,1.09-1.89l.09-28.43c0-2.5-2.69-4.08-4.87-2.85l-99.71,56.33s0,0,0,0l-.12-51.43s0,0,0,0l199.11-116.49s0,0,0,0l-.42,227.62s0,0,0,0l-139.11,79.82s0,0,0,0Z"/>
</svg>